#!OML:ASF F:\VICON\USERDATA\INSTALL\rory3\rory3.ASF
:FULLY-SPECIFIED
:DEGREES
326
root 7.93312 17.9069 35.1473 -12.8081 -75.596 17.6297
lowerback 34.7532 0.0404561 2.53905
upperback 7.1793 0.621531 3.30299
thorax -9.67295 -0.0682453 1.96822
lowerneck -12.3594 -0.142745 -2.89458
upperneck 8.40761 1.13109 -8.58783
head 4.60162 -0.134748 -2.11476
rclavicle 7.31528e-014 1.43125e-014
rhumerus -26.0821 -30.7702 -45.4641
rradius 91.0223
rwrist -9.71618
rhand -5.513 7.26437
rfingers 7.12502
rthumb 20.3004 -21.6947
lclavicle 7.31528e-014 1.43125e-014
lhumerus -48.2428 8.56671 74.8991
lradius 56.5288
lwrist 9.91744
lhand -14.5919 48.2876
lfingers 7.12502
lthumb 11.5583 77.9489
rfemur -22.35 3.18469 21.8001
rtibia 51.3859
rfoot -22.1983 -11.9103
rtoes 13.3742
lfemur -29.8354 -1.11772 -7.28741
ltibia 43.3364
lfoot -6.60555 -1.66082
ltoes -39.4453
327
root 7.96566 17.8654 35.3497 -13.6656 -75.8289 18.4062
lowerback 34.7865 0.172006 2.17435
upperback 7.12994 0.679577 3.44564
thorax -9.75521 -0.0354377 2.29279
lowerneck -12.3763 0.0145728 -2.83635
upperneck 8.47142 1.3844 -9.07837
head 4.63887 -0.047111 -2.25881
rclavicle 5.56597e-015 -1.27222e-014
rhumerus -25.3509 -29.1671 -46.6306
rradius 92.9526
rwrist -6.76036
rhand -6.58402 8.26985
rfingers 7.12502
rthumb 19.2709 -20.7953
lclavicle 5.56597e-015 -1.27222e-014
lhumerus -48.2776 9.47541 75.1397
lradius 56.2212
lwrist 9.37292
lhand -15.264 48.7844
lfingers 7.12502
lthumb 10.9101 78.4809
rfemur -22.2923 4.27974 20.8415
rtibia 51.6774
rfoot -22.7318 -12.0479
rtoes 12.0814
lfemur -29.3569 -1.60917 -6.25381
ltibia 42.7844
lfoot -5.18002 -0.969346
ltoes -39.4963
328
root 7.99216 17.8225 35.5519 -13.1856 -76.0302 17.6552
lowerback 34.8636 0.146334 2.26245
upperback 7.16669 0.689186 3.62288
thorax -9.74584 -0.0385895 2.43207
lowerneck -12.263 0.0811454 -3.04824
upperneck 8.2722 1.49282 -9.20105
head 4.56327 0.000166884 -2.25261
rclavicle 2.62396e-014 -2.06736e-014
rhumerus -24.5372 -27.4484 -48.1186
rradius 94.6408
rwrist -3.88989
rhand -8.08594 8.78283
rfingers 7.12502
rthumb 17.8261 -20.4201
lclavicle 2.62396e-014 -2.06736e-014
lhumerus -48.1532 10.2664 75.5042
lradius 55.9184
lwrist 9.58842
lhand -16.9712 49.5755
lfingers 7.12502
lthumb 9.26312 79.352
rfemur -22.0476 5.13166 20.3191
rtibia 51.9909
rfoot -23.2504 -12.2639
rtoes 10.6863
lfemur -28.7072 -1.86905 -4.93074
ltibia 42.0867
lfoot -3.43989 -0.439075
ltoes -37.9108
329
root 8.01753 17.7992 35.7528 -14.2656 -76.1476 18.489
lowerback 35.0751 0.0970453 2.23518
upperback 7.12781 0.612253 3.50495
thorax -9.86313 -0.07456 2.35321
lowerneck -12.1951 0.127775 -3.09011
upperneck 8.33585 1.56915 -9.26785
head 4.5751 0.0299206 -2.26114
rclavicle 4.85035e-014 1.27222e-014
rhumerus -24.0359 -25.5061 -49.7149
rradius 96.1981
rwrist -1.32109
rhand -9.42922 9.05216
rfingers 7.12502
rthumb 16.5332 -20.2635
lclavicle 4.85035e-014 1.27222e-014
lhumerus -48.0301 10.8184 75.5482
lradius 55.4808
lwrist 9.69862
lhand -17.846 49.6512
lfingers 7.12502
lthumb 8.41897 79.4634
rfemur -21.8176 5.67558 19.3633
rtibia 52.2976
rfoot -24.0082 -12.0277
rtoes 12.187
lfemur -27.9399 -2.29508 -4.14856
ltibia 41.3083
lfoot -1.78553 0.367166
ltoes -38.4298
330
root 8.04071 17.7727 35.9516 -15.1328 -76.0947 18.9992
lowerback 35.2805 0.0366081 2.30824
upperback 7.19628 0.539884 3.35384
thorax -9.85498 -0.113061 2.18288
lowerneck -12.245 0.203087 -2.63954
upperneck 8.4158 1.63926 -9.57823
head 4.61661 0.0549081 -2.42632
rclavicle 0 5.08889e-014
rhumerus -23.5824 -23.7024 -51.517
rradius 97.3334
rwrist 1.41676
rhand -11.2744 9.43068
rfingers 7.12502
rthumb 14.7561 -20.0241
lclavicle 0 5.08889e-014
lhumerus -47.6024 11.1088 75.5471
lradius 54.9
lwrist 9.49632
lhand -18.0622 49.6735
lfingers 7.12502
lthumb 8.21026 79.494
rfemur -21.4207 5.88641 18.5092
rtibia 52.5599
rfoot -24.5311 -12.0695
rtoes 11.8371
lfemur -27.1895 -3.39382 -3.13711
ltibia 40.544
lfoot -0.0266765 1.44611
ltoes -34.4783
331
root 8.08605 17.7297 36.1955 -12.5875 -74.7472 16.8863
lowerback 34.4081 -0.941601 3.64478
upperback 7.09586 -0.230251 3.27496
thorax -9.60045 -0.476041 1.67347
lowerneck -12.3707 0.34373 -2.43025
upperneck 8.5979 1.8434 -9.81585
head 4.70644 0.13464 -2.52104
rclavicle -5.40694e-014 -5.40694e-014
rhumerus -22.9707 -21.4832 -53.4026
rradius 98.1047
rwrist 3.84267
rhand -14.0601 9.04318
rfingers 7.12502
rthumb 12.0712 -20.5886
lclavicle -5.40694e-014 -5.40694e-014
lhumerus -47.1571 11.461 75.8987
lradius 54.2744
lwrist 9.49836
lhand -18.7351 50.1383
lfingers 7.12502
lthumb 7.5608 79.9832
rfemur -21.9014 4.27957 17.7643
rtibia 52.7648
rfoot -24.912 -12.126
rtoes 10.479
lfemur -28.1321 -5.2465 -1.96382
ltibia 39.6915
lfoot 2.05785 2.27147
ltoes -32.8719
332
root 8.12704 17.711 36.4296 -13.4395 -74.6866 17.7559
lowerback 34.3005 -1.12521 3.72304
upperback 7.08474 -0.442475 3.22438
thorax -9.56943 -0.573617 1.65705
lowerneck -12.4652 0.490464 -2.48836
upperneck 8.75652 2.0859 -9.96673
head 4.78359 0.229952 -2.54188
rclavicle -3.65764e-014 -2.22639e-014
rhumerus -22.1465 -19.5207 -54.9067
rradius 98.1703
rwrist 7.88354
rhand -14.9169 10.037
rfingers 7.12502
rthumb 11.2449 -19.6416
lclavicle -3.65764e-014 -2.22639e-014
lhumerus -46.7479 12.1119 76.2732
lradius 53.5202
lwrist 9.1574
lhand -18.6615 50.5685
lfingers 7.12502
lthumb 7.63189 80.4108
rfemur -21.8311 3.65447 16.6279
rtibia 52.7856
rfoot -25.2226 -11.9222
rtoes 9.35868
lfemur -27.7262 -6.21594 -1.36327
ltibia 38.8373
lfoot 3.65972 3.72444
ltoes -32.1883
333
root 8.11909 17.6917 36.575 -15.9963 -77.2326 19.6583
lowerback 35.0304 0.446211 2.01594
upperback 7.31811 0.945106 3.58838
thorax -9.65262 0.0717047 2.42872
lowerneck -12.4725 0.426265 -2.39462
upperneck 8.83922 2.01065 -10.1797
head 4.81149 0.176642 -2.63063
rclavicle 9.54166e-015 1.74931e-014
rhumerus -21.684 -17.0394 -56.4707
rradius 98.1214
rwrist 10.0733
rhand -17.3904 9.88023
rfingers 7.12502
rthumb 8.85863 -19.9138
lclavicle 9.54166e-015 1.74931e-014
lhumerus -46.2623 12.1867 76.8596
lradius 52.9153
lwrist 9.01171
lhand -18.6542 51.0522
lfingers 7.12502
lthumb 7.63894 80.8942
rfemur -21.1679 5.93757 16.4067
rtibia 52.6087
rfoot -25.4621 -12.0531
rtoes 9.188
lfemur -25.1136 -5.14355 -0.169068
ltibia 37.8841
lfoot 4.26677 5.82705
ltoes -30.9374
334
root 8.13628 17.6589 36.785 -12.8887 -77.9193 16.3792
lowerback 34.9218 0.624177 2.63586
upperback 7.38549 1.39504 3.85859
thorax -9.53825 0.26078 2.21346
lowerneck -12.5135 0.327322 -2.16062
upperneck 9.09596 1.88002 -10.3349
head 4.89589 0.097727 -2.73035
rclavicle 2.38542e-015 -9.54166e-015
rhumerus -21.4325 -15.0363 -57.7724
rradius 97.6075
rwrist 12.4914
rhand -19.2904 10.2093
rfingers 7.12502
rthumb 7.0248 -19.6541
lclavicle 2.38542e-015 -9.54166e-015
lhumerus -45.5798 11.8635 77.681
lradius 52.2665
lwrist 8.94456
lhand -18.9418 51.5934
lfingers 7.12502
lthumb 7.3613 81.4453
rfemur -20.908 6.20079 16.6309
rtibia 52.3338
rfoot -25.6221 -12.321
rtoes 7.8674
lfemur -24.2717 -5.40638 1.57559
ltibia 36.7929
lfoot 5.61341 7.06543
ltoes -31.1434
335
root 8.1566 17.6477 37.0036 -12.8487 -78.2905 16.1985
lowerback 34.8112 0.767303 2.27184
upperback 7.48663 1.45306 4.11565
thorax -9.41177 0.287519 2.65817
lowerneck -12.5455 0.532912 -2.09896
upperneck 9.37863 2.19845 -10.5434
head 5.00744 0.225911 -2.78363
rclavicle -6.36111e-015 -2.38542e-014
rhumerus -20.5616 -12.4281 -59.1963
rradius 96.4653
rwrist 14.5768
rhand -20.9827 10.7813
rfingers 7.12502
rthumb 5.39104 -19.1301
lclavicle -6.36111e-015 -2.38542e-014
lhumerus -45.1398 11.9854 78.5394
lradius 51.6761
lwrist 8.91009
lhand -19.2809 51.9423
lfingers 7.12502
lthumb 7.03398 81.8054
rfemur -20.5681 6.14039 15.9855
rtibia 51.9707
rfoot -25.6044 -12.5139
rtoes 5.77372
lfemur -23.3371 -6.39657 2.47655
ltibia 35.6435
lfoot 6.95827 8.93736
ltoes -28.1756
